<svg xmlns="http://www.w3.org/2000/svg" viewBox="0 0 16 16" fill="rgba(249, 249, 250, 0.7)">
  <path d="M13.07726 2.8493C11.78404.9866 9.20948.44083 7.35864 1.62727l-3.2627 2.07625c-.88982.55763-1.50676 1.4712-1.68473 2.50339-.15424.86609-.02373 1.75592.39153 2.5271-.28475.42712-.47458.90169-.55763 1.4-.18983 1.05593.05932 2.14743.67627 3.01354 1.30508 1.8627 3.86777 2.40846 5.71861 1.2339l3.2627-2.07627c.88983-.55762 1.50677-1.47118 1.68473-2.50338.15424-.8661.02374-1.75591-.39152-2.5271.28474-.42712.47457-.9017.55763-1.4.18982-1.0678-.04745-2.1593-.67627-3.0254M7.0383 13.3255c-1.05593.27288-2.15932-.14237-2.77627-1.0322-.37966-.52202-.52202-1.17456-.41524-1.81524.02373-.10678.04746-.2017.07118-.30847l.05932-.18983.1661.11864c.39153.28474.81864.49831 1.28135.64067l.11865.03552-.01187.11864c-.01187.1661.0356.34407.13051.48644.18983.27288.52203.4034.84237.32034.07119-.02371.14237-.04751.20168-.08304l3.25084-2.07624c.1661-.10678.27289-.26103.30848-.45086.03559-.18983-.01187-.39152-.11865-.54575-.18983-.27289-.52203-.39153-.84236-.30847-.0712.0237-.14238.0475-.2017.08303l-1.23389.78304c-.2017.13052-.42712.22543-.6644.28475-1.05594.27288-2.15932-.14237-2.77626-1.0322-.3678-.52203-.52203-1.17457-.40339-1.81525.10678-.61694.48644-1.17456 1.02034-1.50677L8.29593 2.956c.20168-.1305.4271-.22542.6644-.2966 1.05592-.27288 2.1593.14237 2.77625 1.0322.37966.52202.52204 1.17456.41526 1.81524-.02373.10678-.04746.2017-.08305.30847l-.05932.18983-.1661-.11864c-.39153-.28475-.81865-.4983-1.28135-.64068l-.11865-.03553.01187-.11864c.01187-.1661-.0356-.34407-.1305-.48644-.18984-.27289-.52204-.39153-.84238-.30847-.07119.02371-.14237.04751-.20168.08304L6.02982 6.4679c-.1661.10677-.27287.261-.30847.45084-.0356.18983.01187.39152.11865.54576.18982.27288.52203.39153.84236.30847.0712-.02371.14238-.04751.2017-.08303l1.24576-.79492c.20168-.13051.4271-.22542.6644-.29661 1.05592-.27288 2.1593.14238 2.77625 1.0322.37966.52203.52204 1.17457.41526 1.81524-.10679.61695-.48644 1.17457-1.02034 1.50678l-3.25081 2.07626c-.21357.1305-.439.22541-.67627.2966"/>
</svg>
