<?xml version="1.0" encoding="utf-8"?>
<!-- Generator: Adobe Illustrator 23.0.2, SVG Export Plug-In . SVG Version: 6.00 Build 0)  -->
<svg version="1.1" id="Layer_1" xmlns="http://www.w3.org/2000/svg" xmlns:xlink="http://www.w3.org/1999/xlink" x="0px" y="0px"
	 viewBox="0 0 118 118" style="enable-background:new 0 0 118 118;" xml:space="preserve">
<path
   style="fill:#ff3e00"
   id="path4"
   d="M 101.77393,15.6 C 90.873927,-0.1 69.173927,-4.7 53.573927,5.2 l -27.5,17.6 c -7.5,4.7 -12.7,12.4 -14.2,21.1 -1.3,7.3 -0.2,14.8 3.3,21.3 -2.4,3.6 -4,7.6 -4.7,11.8 -1.5999997,8.9 0.5,18.1 5.7,25.4 11,15.7 32.6,20.3 48.2,10.4 l 27.5,-17.5 c 7.5,-4.7 12.700003,-12.4 14.200003,-21.1 1.3,-7.3 0.2,-14.8 -3.3,-21.3 2.4,-3.6 4,-7.6 4.7,-11.8 1.7,-9 -0.4,-18.2 -5.7,-25.5"
   class="st0" />
<path
   style="fill:#ffffff"
   id="path6"
   d="M 50.9,103.9 C 42,106.2 32.7,102.7 27.5,95.2 24.3,90.8 23.1,85.3 24,79.9 24.2,79 24.4,78.2 24.6,77.3 l 0.5,-1.6 1.4,1 c 3.3,2.4 6.9,4.2 10.8,5.4 l 1,0.3 -0.1,1 c -0.1,1.4 0.3,2.9 1.1,4.1 1.6,2.3 4.4,3.4 7.1,2.7 0.6,-0.2 1.2,-0.4 1.7,-0.7 L 75.5,72 c 1.4,-0.9 2.3,-2.2 2.6,-3.8 0.3,-1.6 -0.1,-3.3 -1,-4.6 -1.6,-2.3 -4.4,-3.3 -7.1,-2.6 -0.6,0.2 -1.2,0.4 -1.7,0.7 l -10.5,6.7 c -1.7,1.1 -3.6,1.9 -5.6,2.4 C 43.3,73.1 34,69.6 28.8,62.1 25.7,57.7 24.4,52.2 25.4,46.8 26.3,41.6 29.5,36.9 34,34.1 L 61.5,16.6 c 1.7,-1.1 3.6,-1.9 5.6,-2.5 8.9,-2.3 18.2,1.2 23.4,8.7 3.2,4.4 4.4,9.9 3.5,15.3 -0.2,0.9 -0.4,1.7 -0.7,2.6 l -0.5,1.6 -1.4,-1 C 88.1,38.9 84.5,37.1 80.6,35.9 l -1,-0.3 0.1,-1 c 0.1,-1.4 -0.3,-2.9 -1.1,-4.1 -1.6,-2.3 -4.4,-3.3 -7.1,-2.6 -0.6,0.2 -1.2,0.4 -1.7,0.7 L 42.4,46.1 c -1.4,0.9 -2.3,2.2 -2.6,3.8 -0.3,1.6 0.1,3.3 1,4.6 1.6,2.3 4.4,3.3 7.1,2.6 0.6,-0.2 1.2,-0.4 1.7,-0.7 l 10.5,-6.7 c 1.7,-1.1 3.6,-1.9 5.6,-2.5 8.9,-2.3 18.2,1.2 23.4,8.7 3.2,4.4 4.4,9.9 3.5,15.3 -0.9,5.2 -4.1,9.9 -8.6,12.7 l -27.5,17.5 c -1.7,1.1 -3.6,1.9 -5.6,2.5"
   class="st1" />
</svg>
