<?xml version="1.0" encoding="UTF-8" standalone="no"?>
<svg
   xmlns:dc="http://purl.org/dc/elements/1.1/"
   xmlns:cc="http://creativecommons.org/ns#"
   xmlns:rdf="http://www.w3.org/1999/02/22-rdf-syntax-ns#"
   xmlns:svg="http://www.w3.org/2000/svg"
   xmlns="http://www.w3.org/2000/svg"
   id="svg6"
   version="1.1"
   viewBox="0 0 16 16"
   height="16"
   width="16">
  <metadata
     id="metadata12">
    <rdf:RDF>
      <cc:Work
         rdf:about="">
        <dc:format>image/svg+xml</dc:format>
        <dc:type
           rdf:resource="http://purl.org/dc/dcmitype/StillImage" />
        <dc:title></dc:title>
      </cc:Work>
    </rdf:RDF>
  </metadata>
  <defs
     id="defs10" />
  <path
     style="fill:none"
     id="path2"
     d="M 0,-8 H 24 V 16 H 0 Z" />
  <path
     style="stroke-width:0.73029679"
     id="path4"
     d="M 8,2 C 4.3636364,2 1.2581818,4.2806669 0,7.5000003 1.2581818,10.719333 4.3636364,13 8,13 11.636364,13 14.741818,10.719333 16,7.5000003 14.741818,4.2806669 11.636364,2 8,2 Z m 0,9.166667 c -2.0072727,0 -3.6363636,-1.642666 -3.6363636,-3.6666667 0,-2.0240001 1.6290909,-3.6666668 3.6363636,-3.6666668 2.007273,0 3.636364,1.6426667 3.636364,3.6666668 0,2.0240007 -1.629091,3.6666667 -3.636364,3.6666667 z M 8,5.3000003 c -1.2072727,0 -2.1818182,0.9826666 -2.1818182,2.2 C 5.8181818,8.7173337 6.7927273,9.7 8,9.7 c 1.207273,0 2.181818,-0.9826663 2.181818,-2.1999997 0,-1.2173334 -0.974545,-2.2 -2.181818,-2.2 z" />
</svg>
