<svg xmlns="http://www.w3.org/2000/svg" viewBox="0 0 16 16">
  <path d="M0-8h24v24H0z" fill="none"/>
  <path fill="#0c0c0d" d="M8 2C4.36364 2 1.25818 4.28067 0 7.5 1.25818 10.71933 4.36364 13 8 13s6.74182-2.28067 8-5.5C14.74182 4.28067 11.63636 2 8 2zm0 9.16667c-2.00727 0-3.63636-1.64267-3.63636-3.66667S5.99273 3.83333 8 3.83333 11.63636 5.476 11.63636 7.5 10.00727 11.16667 8 11.16667zM8 5.3c-1.20727 0-2.18182.98267-2.18182 2.2S6.79273 9.7 8 9.7s2.18182-.98267 2.18182-2.2S9.20727 5.3 8 5.3z"/>
</svg>
