<?xml version="1.0" encoding="UTF-8" standalone="no"?>
<svg
   xmlns:svg="http://www.w3.org/2000/svg"
   xmlns="http://www.w3.org/2000/svg"
   height="128"
   width="128"
   viewBox="0 0 128 128">
  <path
     d="M 104.58964,22.816266 C 94.246256,7.918001 73.654385,3.552904 58.851014,12.947351 l -26.095687,16.70124 c -7.117005,4.45999 -12.051463,11.766782 -13.474864,20.022508 -1.233613,6.927219 -0.189787,14.044224 3.131483,20.212296 -2.277442,3.416163 -3.795737,7.211899 -4.45999,11.197422 -1.518295,8.445513 0.474467,17.175708 5.408924,24.102913 10.438274,14.89827 30.93525,19.26336 45.738621,9.86891 L 95.195185,98.446315 c 7.117015,-4.45999 12.051465,-11.766788 13.474865,-20.022514 1.23362,-6.927219 0.18979,-14.044224 -3.13149,-20.212295 2.27744,-3.416162 3.79574,-7.211899 4.46,-11.197421 1.61319,-8.540407 -0.37957,-17.270601 -5.40892,-24.197819"
     style="fill:#ff3e00;stroke-width:0.94893408" />
  <path
     d="m 56.313633,106.60713 c -8.445512,2.18255 -17.270599,-1.13872 -22.205056,-8.255715 -3.036589,-4.17531 -4.17531,-9.394445 -3.321269,-14.51869 0.189786,-0.85404 0.379574,-1.613188 0.569361,-2.467228 l 0.474467,-1.518295 1.328507,0.948934 c 3.131482,2.277443 6.547645,3.985523 10.248488,5.124245 l 0.948934,0.284679 -0.09489,0.948934 c -0.09489,1.328509 0.284681,2.75191 1.043828,3.89063 1.518295,2.182551 4.175309,3.226371 6.737431,2.562121 0.569361,-0.18979 1.138722,-0.37957 1.613189,-0.66425 L 79.657412,76.336147 c 1.328507,-0.854041 2.182548,-2.087655 2.467228,-3.60595 0.28468,-1.518294 -0.09489,-3.131483 -0.948934,-4.365096 -1.518294,-2.182549 -4.17531,-3.131483 -6.737432,-2.467229 -0.56936,0.189787 -1.13872,0.379573 -1.613187,0.664254 l -9.963808,6.357858 c -1.613188,1.043827 -3.416163,1.802975 -5.314031,2.277442 -8.445513,2.182548 -17.2706,-1.138721 -22.205057,-8.255726 -2.941696,-4.175311 -4.175309,-9.394448 -3.226375,-14.518692 0.85404,-4.934456 3.890629,-9.394447 8.160832,-12.051462 L 66.372335,23.7652 c 1.613188,-1.043828 3.416163,-1.802975 5.314031,-2.372335 8.445513,-2.182549 17.2706,1.138721 22.20506,8.255726 3.036584,4.17531 4.175309,9.394447 3.321266,14.518691 -0.189788,0.854041 -0.379575,1.613188 -0.664257,2.467228 l -0.47446,1.518295 -1.328514,-0.948934 c -3.13148,-2.277442 -6.547643,-3.985523 -10.248485,-5.124244 l -0.948934,-0.28468 0.09489,-0.948934 c 0.09489,-1.328508 -0.28468,-2.751909 -1.043826,-3.89063 -1.518295,-2.182548 -4.175311,-3.131482 -6.737433,-2.467229 -0.56936,0.189788 -1.13872,0.379574 -1.613187,0.664255 L 48.247695,51.758755 c -1.328508,0.85404 -2.182549,2.087655 -2.467229,3.605949 -0.28468,1.518294 0.09489,3.131482 0.948934,4.365097 1.518295,2.182548 4.17531,3.131482 6.737431,2.467228 0.569361,-0.189787 1.138722,-0.379574 1.613189,-0.664254 l 9.963808,-6.357858 c 1.613187,-1.043827 3.416162,-1.802974 5.31403,-2.372335 8.445513,-2.182549 17.270599,1.13872 22.205055,8.255726 3.036594,4.17531 4.17531,9.394448 3.321275,14.518691 -0.854046,4.934457 -3.890637,9.394448 -8.160837,12.051462 L 61.627665,104.2348 c -1.613188,1.04382 -3.416163,1.80297 -5.314032,2.37233"
     style="fill:#ffffff;stroke-width:0.94893408" />
</svg>
